<svg id="Layer_1" enable-background="new 0 0 512.004 512.004" height="512" viewBox="0 0 512.004 512.004" width="512" xmlns="http://www.w3.org/2000/svg"><g><g><path d="m504.495 234.415c-.966-50.472-43.187-90.526-93.662-88.699-7.393.265-14.359-3.749-17.906-10.241-21.943-40.164-64.57-67.407-113.562-67.407-50.241 0-93.766 28.663-115.172 70.52-6.235 12.192-18.661 10.581-23.965 10.581-38.951 0-72.026 25.094-83.978 59.994-1.986 5.798-6.734 10.156-12.516 12.188-21.735 7.639-37.131 28.737-36.184 53.294 1.129 29.29 26.062 52.06 55.374 52.06h349.277c50.759 0 93.265-41.54 92.294-92.29z" fill="#9dc6fb"/><path d="m122.297 274.645c-.947-24.557 14.449-45.655 36.184-53.294 5.782-2.032 10.53-6.391 12.516-12.188 11.952-34.899 45.027-59.994 83.978-59.994 5.305 0 17.73 1.611 23.965-10.581 12.624-24.685 32.946-44.774 57.797-57.109-17.29-8.575-36.764-13.411-57.372-13.411-50.241 0-93.766 28.663-115.172 70.52-6.235 12.192-18.661 10.581-23.965 10.581-38.951 0-72.026 25.094-83.978 59.994-1.986 5.798-6.734 10.156-12.516 12.188-21.735 7.639-37.131 28.738-36.184 53.294 1.129 29.29 26.062 52.06 55.374 52.06h114.747c-29.312 0-54.245-22.77-55.374-52.06z" fill="#80b4fb"/><circle cx="267.132" cy="326.72" fill="#93d3a2" r="117.238"/><path d="m200.566 326.72c0-56.048 39.334-102.902 91.901-114.484-8.16-1.798-16.636-2.754-25.336-2.754-64.748 0-117.238 52.489-117.238 117.238s52.489 117.238 117.238 117.238c8.7 0 17.176-.956 25.336-2.754-52.567-11.582-91.901-58.436-91.901-114.484z" fill="#6ec17d"/><path d="m310.79 308.218h-87.317c-6.78 0-12.327 5.547-12.327 12.327v64.363c0 6.78 5.547 12.327 12.327 12.327h87.317c6.78 0 12.327-5.547 12.327-12.327v-64.363c0-6.78-5.547-12.327-12.327-12.327z" fill="#ffe181"/><path d="m243.422 384.908v-64.363c0-6.78 5.547-12.327 12.327-12.327h-32.276c-6.78 0-12.327 5.547-12.327 12.327v64.363c0 6.78 5.547 12.327 12.327 12.327h32.276c-6.78 0-12.327-5.547-12.327-12.327z" fill="#fec458"/><g><g><circle cx="267.132" cy="346.672" fill="#fec458" r="14.621"/></g></g><path d="m268.638 346.672c0-5.093 2.607-9.574 6.557-12.191-2.312-1.532-5.082-2.43-8.063-2.43-8.075 0-14.621 6.546-14.621 14.621s6.546 14.621 14.621 14.621c2.982 0 5.751-.897 8.063-2.43-3.95-2.617-6.557-7.098-6.557-12.191z" fill="#f9ab49"/></g><g><path d="m267.134 381.616c4.143 0 7.5-3.358 7.5-7.5v-6.65c8.516-3.079 14.619-11.243 14.619-20.808 0-12.197-9.923-22.119-22.119-22.119s-22.119 9.922-22.119 22.119c0 9.565 6.104 17.729 14.619 20.808v6.65c0 4.142 3.358 7.5 7.5 7.5zm0-42.077c3.926 0 7.119 3.194 7.119 7.119s-3.193 7.119-7.119 7.119-7.119-3.194-7.119-7.119 3.193-7.119 7.119-7.119z"/><path d="m511.986 234.275c-1.047-54.695-46.695-98.04-101.431-96.051-4.504.168-8.86-2.326-11.055-6.342-5.559-10.176-12.441-19.657-20.456-28.182-2.836-3.019-7.583-3.165-10.602-.327-3.018 2.837-3.164 7.584-.326 10.602 7.142 7.597 13.271 16.041 18.22 25.099 4.891 8.955 14.577 14.499 24.76 14.141 46.284-1.671 85.005 34.974 85.892 81.348.898 46.847-38.546 84.646-84.795 84.646h-20.557c-3.929-65.761-58.684-117.224-124.502-117.224-66.148 0-120.592 51.793-124.501 117.224h-79.717c-25.447 0-46.927-20.119-47.88-44.849-.796-20.638 11.732-39.096 31.177-45.93 8.207-2.885 14.448-9.021 17.124-16.834 11.251-32.852 42.147-54.924 76.883-54.924 5.145 0 22.15 1.943 30.643-14.666 20.957-40.979 62.529-66.435 108.495-66.435 22.327 0 44.161 6.093 63.141 17.622 3.538 2.15 8.152 1.023 10.304-2.517 2.15-3.541 1.023-8.153-2.517-10.304-21.328-12.954-45.854-19.801-70.928-19.801-51.626 0-98.316 28.587-121.851 74.605-3.806 7.445-10.668 6.496-17.287 6.496-41.146 0-77.746 26.147-91.074 65.064-1.179 3.441-4.061 6.19-7.907 7.542-25.688 9.029-42.242 33.406-41.19 60.659 1.281 33.263 29.427 59.271 62.868 59.271h79.727c3.893 65.294 58.238 117.224 124.492 117.224 66.255 0 120.6-51.93 124.493-117.224h20.566c54.509 0 100.851-44.552 99.791-99.933zm-244.852 202.157c-60.502 0-109.724-49.222-109.724-109.724s49.222-109.724 109.724-109.724 109.725 49.222 109.725 109.724-49.223 109.724-109.725 109.724z"/><path d="m311.457 300.742v-14.259c0-24.439-19.883-44.321-44.322-44.321-24.438 0-44.321 19.882-44.321 44.321v14.259c-10.621.356-19.157 9.085-19.157 19.792v64.356c0 10.932 8.894 19.826 19.825 19.826h87.307c10.933 0 19.826-8.894 19.826-19.826v-14.678c0-4.142-3.357-7.5-7.5-7.5s-7.5 3.358-7.5 7.5v14.678c0 2.616-2.21 4.826-4.826 4.826h-87.307c-2.615 0-4.825-2.21-4.825-4.826v-64.356c0-2.616 2.21-4.826 4.825-4.826h87.307c2.616 0 4.826 2.21 4.826 4.826v14.678c0 4.142 3.357 7.5 7.5 7.5s7.5-3.358 7.5-7.5v-14.678c-.001-10.706-8.537-19.435-19.158-19.792zm-15-.034h-58.644v-14.225c0-16.168 13.153-29.321 29.321-29.321s29.322 13.153 29.322 29.321v14.225z"/></g></g></svg>